<svg width="24" height="22" viewBox="0 0 24 22" fill="none" xmlns="http://www.w3.org/2000/svg">
<path d="M1.49967 0.5H22.4997C22.8091 0.5 23.1058 0.622916 23.3246 0.841709C23.5434 1.0605 23.6663 1.35725 23.6663 1.66667V20.3333C23.6663 20.6428 23.5434 20.9395 23.3246 21.1583C23.1058 21.3771 22.8091 21.5 22.4997 21.5H1.49967C1.19026 21.5 0.893509 21.3771 0.674717 21.1583C0.455924 20.9395 0.333008 20.6428 0.333008 20.3333V1.66667C0.333008 1.35725 0.455924 1.0605 0.674717 0.841709C0.893509 0.622916 1.19026 0.5 1.49967 0.5ZM21.333 5.44433L12.0837 13.7277L2.66634 5.41867V19.1667H21.333V5.44433ZM3.26251 2.83333L12.0708 10.6057L20.752 2.83333H3.26251Z" fill="black"/>
</svg>
