<svg width="19" height="21" fill="none" xmlns="http://www.w3.org/2000/svg">
    <path d="M3.88 16.65c-.3-.2-.55-.45-.86-.81l-.46-.58c-.47-.58-.76-.84-1.06-.95a1 1 0 0 1 .68-1.88c.75.27 1.26.73 1.94 1.58l.44.54c.19.23.33.37.44.44.2.14.58.2 1.15.14.02-.38.09-.75.2-1.1-2.97-.72-4.65-2.63-4.65-6.39 0-1.24.37-2.36 1.06-3.3-.22-.89-.19-1.97.3-3.18a1 1 0 0 1 .63-.59l.2-.04C4.7.4 5.85.7 7.32 1.63a11.73 11.73 0 0 1 5.37 0C14.16.68 15.3.4 16.11.52l.21.05a1 1 0 0 1 .62.58c.49 1.21.52 2.3.3 3.19.7.93 1.06 2.04 1.06 3.29 0 3.76-1.67 5.66-4.64 6.4.12.4.19.87.19 1.37l-.01 2.72a1 1 0 0 1-.02 1.96c-1.14.22-1.99-.54-1.99-1.53v-.45l.01-.7v-2c0-.7-.17-1.15-.42-1.36a1 1 0 0 1 .54-1.75c2.97-.33 4.34-1.48 4.34-4.66 0-.96-.31-1.74-.91-2.4a1 1 0 0 1-.2-1.05c.17-.41.24-.96.1-1.61-.5.14-1.12.44-1.86.95a1 1 0 0 1-.84.13 9.63 9.63 0 0 0-5.18 0 1 1 0 0 1-.83-.13c-.75-.5-1.38-.8-1.87-.95-.14.66-.07 1.2.1 1.61a1 1 0 0 1-.2 1.05c-.6.65-.91 1.45-.91 2.4 0 3.17 1.37 4.33 4.32 4.66a1 1 0 0 1 .55 1.75c-.2.17-.43.73-.43 1.36v3.15c0 .99-.84 1.73-1.96 1.53a1 1 0 0 1-.04-1.96v-1a3.52 3.52 0 0 1-2.26-.48Z" fill="#656565"/>
</svg>