<svg width="130" height="118" viewBox="0 0 130 118" fill="none" xmlns="http://www.w3.org/2000/svg">
<path d="M6.5 0.5H123.5C125.224 0.5 126.877 1.18482 128.096 2.40381C129.315 3.62279 130 5.27609 130 7V111C130 112.724 129.315 114.377 128.096 115.596C126.877 116.815 125.224 117.5 123.5 117.5H6.5C4.77609 117.5 3.12279 116.815 1.90381 115.596C0.684819 114.377 0 112.724 0 111V7C0 5.27609 0.684819 3.62279 1.90381 2.40381C3.12279 1.18482 4.77609 0.5 6.5 0.5ZM117 28.047L65.468 74.197L13 27.904V104.5H117V28.047ZM16.3215 13.5L65.3965 56.803L113.763 13.5H16.3215Z" fill="#A0A5B1"/>
</svg>
