<svg xmlns="http://www.w3.org/2000/svg" width="512" height="512" xml:space="preserve">
  <g xmlns="http://www.w3.org/2000/svg" fill="#656565">
    <path d="M396 255.5c0-77.2-62.8-140-140-140s-140 62.8-140 140 62.8 140 140 140 140-62.8 140-140zm-120.58-20h-38.85c2.55-43.4 12.98-69.99 19.43-78.19 6.45 8.2 16.88 34.8 19.43 78.19zm0 40c-2.54 43.4-12.97 69.99-19.42 78.19-6.45-8.2-16.88-34.8-19.43-78.19zm29.09 67.42c6.11-19.68 9.71-43.16 10.97-67.42h38.5a100.32 100.32 0 0 1-49.47 67.42zm49.48-107.42h-38.5c-1.27-24.25-4.87-47.74-10.98-67.42a100.32 100.32 0 0 1 49.48 67.42zm-146.5-67.42c-6.11 19.67-9.71 43.16-10.97 67.42h-38.5a100.32 100.32 0 0 1 49.47-67.42zM158.01 275.5h38.5c1.27 24.25 4.87 47.74 10.98 67.42a100.32 100.32 0 0 1-49.48-67.42z" data-original="#000000"/>
      <path d="M472.52 117.7a59.97 59.97 0 0 0-8.39-74.33 60.07 60.07 0 0 0-84.85 0 60.07 60.07 0 0 0 0 84.85 60.02 60.02 0 0 0 61.6 14.4A218.45 218.45 0 0 1 472 255.5c0 121.12-94.88 216-216 216-20.68 0-41.14-2.86-60.8-8.5l-11.04 38.44A260.4 260.4 0 0 0 256 511.5c143.55 0 256-112.45 256-256 0-49.2-13.6-96.52-39.48-137.8zm-64.96-17.76a20.02 20.02 0 0 1 0-28.29c7.8-7.8 20.49-7.8 28.29 0a19.99 19.99 0 1 1-28.29 28.29zM71.12 368.37A218.47 218.47 0 0 1 40 255.5c0-120.56 94.88-215 216-215 20.68 0 41.14 2.86 60.8 8.5l11.04-38.44A260.4 260.4 0 0 0 256 .5C113.19.5 0 111.13 0 255.5c0 49.2 13.6 96.52 39.48 137.8a59.97 59.97 0 0 0 8.39 74.33 60.07 60.07 0 0 0 84.85 0 60.07 60.07 0 0 0 0-84.85 60.06 60.06 0 0 0-61.6-14.4zm33.32 70.98a19.99 19.99 0 1 1 0-28.28c7.8 7.8 7.8 20.48 0 28.28z" data-original="#000000"/>
  </g>
</svg>