<?xml version="1.0"?>
<svg xmlns="http://www.w3.org/2000/svg" xmlns:xlink="http://www.w3.org/1999/xlink" xmlns:svgjs="http://svgjs.com/svgjs" version="1.1" width="512" height="512" x="0" y="0" viewBox="0 0 384 384" style="enable-background:new 0 0 512 512" xml:space="preserve" class=""><g><path xmlns="http://www.w3.org/2000/svg" d="m359.28125 99.175781-1.832031-3.175781c-33.25-57.328125-95.257813-96-166.167969-96-70.914062 0-132.921875 38.671875-166.167969 96l-1.832031 3.175781c-12.824219 23.121094-20.984375 49.152344-23.28125 76.824219v32c2.296875 27.671875 10.457031 53.703125 23.28125 76.816406l1.832031 3.183594c33.246094 57.328125 95.253907 96 166.167969 96 70.910156 0 132.917969-38.671875 166.167969-96l1.832031-3.183594c12.824219-23.121094 20.984375-49.144531 23.277344-76.816406v-32c-2.292969-27.671875-10.453125-53.703125-23.277344-76.824219zm-72.328125 76.824219c-.632813-16.808594-2.25-32.878906-4.761719-48h55.632813c6.558593 14.960938 10.953125 31.078125 12.640625 48zm-95.671875 176c-18.089844 0-37.410156-24.648438-50.042969-64h100.089844c-12.640625 39.351562-31.960937 64-50.046875 64zm-58.167969-96c-2.816406-14.824219-4.722656-30.9375-5.464843-48h127.261718c-.742187 17.0625-2.644531 33.175781-5.460937 48zm-5.464843-80c.742187-17.0625 2.648437-33.175781 5.464843-48h116.335938c2.816406 14.824219 4.71875 30.9375 5.460937 48zm63.632812-144c18.085938 0 37.40625 24.65625 50.039062 64h-100.082031c12.632813-39.34375 31.953125-64 50.042969-64zm127.695312 64h-43.769531c-5.398437-19.519531-12.445312-36.71875-20.824219-50.984375 25.753907 11.105469 47.914063 28.855469 64.59375 50.984375zm-190.792968-50.984375c-8.382813 14.265625-15.429688 31.464844-20.832032 50.984375h-43.765624c16.679687-22.128906 38.839843-39.878906 64.597656-50.984375zm-83.449219 82.984375h55.632813c-2.503907 15.121094-4.128907 31.191406-4.757813 48h-63.519531c1.6875-16.921875 6.078125-33.039062 12.644531-48zm50.875 80c.628906 16.808594 2.246094 32.878906 4.757813 48h-55.632813c-6.558594-14.960938-10.949219-31.078125-12.636719-48zm-32.023437 80h43.765624c5.402344 19.519531 12.449219 36.71875 20.824219 50.984375-25.75-11.105469-47.910156-28.855469-64.589843-50.984375zm190.789062 50.984375c8.386719-14.265625 15.433594-31.464844 20.824219-50.984375h43.769531c-16.671875 22.128906-38.832031 39.878906-64.59375 50.984375zm83.457031-82.984375h-55.632812c2.503906-15.121094 4.128906-31.191406 4.761719-48h63.519531c-1.695313 16.921875-6.089844 33.039062-12.648438 48zm0 0" fill="#656565" data-original="#000000" style="" class=""/></g></svg>
