<svg width="24" height="24" fill="none" xmlns="http://www.w3.org/2000/svg"><path d="M12 24c6.627 0 12-5.373 12-12S18.627 0 12 0 0 5.373 0 12s5.373 12 12 12z" fill="url(#paint0_linear)"/><path fill-rule="evenodd" clip-rule="evenodd" d="M5.432 11.873C8.93 10.35 11.263 9.344 12.43 8.86c3.333-1.386 4.025-1.627 4.477-1.635.099-.002.32.023.465.14a.506.506 0 01.17.325c.016.093.036.306.02.472-.18 1.898-.962 6.502-1.36 8.627-.167.9-.499 1.201-.82 1.23-.696.065-1.225-.46-1.9-.902-1.056-.693-1.653-1.124-2.678-1.8-1.185-.78-.417-1.21.258-1.91.177-.184 3.247-2.977 3.307-3.23.007-.032.014-.15-.056-.212-.07-.063-.174-.041-.249-.024-.105.024-1.793 1.139-5.061 3.345-.48.33-.913.49-1.302.481-.428-.01-1.252-.242-1.865-.441-.751-.245-1.349-.374-1.297-.789.027-.216.325-.437.893-.663z" fill="#fff"/><defs><linearGradient id="paint0_linear" x1="12" y1="0" x2="12" y2="23.822" gradientUnits="userSpaceOnUse"><stop stop-color="#2AABEE"/><stop offset="1" stop-color="#229ED9"/></linearGradient></defs></svg>