<svg width="512" height="370" xmlns="http://www.w3.org/2000/svg">
 <path fill="none" d="M-1-1h514v372H-1z"/>
 <g>
  <path fill="#656565" d="M255.98 370.5h-.14c-15.45-.11-152.02-1.36-190.72-11.82a79.13 79.13 0 0 1-55.68-55.64C-.68 265.02-.04 191.84.04 186c-.08-5.82-.73-79.6 9.37-117.93l.03-.11c7.2-26.74 29.04-48.73 55.61-56.01l.2-.06C103.53 1.84 240.37.61 255.86.5h.27c15.49.1 152.43 1.35 190.77 11.83A79.12 79.12 0 0 1 502.5 67.9c10.5 38.35 9.54 112.3 9.43 118.54.07 6.15.69 78.68-9.38 116.88 0 .04-.02.08-.03.11a79.15 79.15 0 0 1-55.7 55.65l-.12.03c-38.25 10.05-175.1 11.28-190.58 11.4h-.14zM48.08 78.31c-8.9 33.83-8.06 106.68-8.05 107.41v.53c-.26 20.2.67 78.71 8.05 106.42a39 39 0 0 0 27.46 27.37c28.55 7.73 139.78 10.16 180.44 10.44 40.76-.28 152.16-2.65 180.5-10.06a39.03 39.03 0 0 0 27.4-27.36c7.4-28.12 8.32-86.34 8.05-106.42v-.63c.37-20.45-.35-79.64-8-107.57l-.03-.08a39.03 39.03 0 0 0-27.47-27.43c-28.28-7.73-139.7-10.15-180.45-10.44-40.73.29-152.03 2.64-180.45 10.05-13.1 3.63-23.87 14.52-27.46 27.77zm435.13 219.9h.01zM205 266.49v-162l140 81-140 81zm0 0"/>
 </g>
</svg>