<svg width="142" height="34" fill="none" xmlns="http://www.w3.org/2000/svg"><path d="M7.69 8.17h2.03c.135 0 .264.055.36.152a.523.523 0 01.148.366v2.066a.527.527 0 01-.149.365.506.506 0 01-.359.152H7.544c-1.882 0-3.242.765-4.079 2.297a.53.53 0 00-.064.255v12.578a.524.524 0 01-.149.366.505.505 0 01-.359.152H.556a.505.505 0 01-.36-.152.524.524 0 01-.148-.366V8.69c0-.138.053-.27.149-.367a.503.503 0 01.359-.151h2.026c.128 0 .252.05.346.139.094.09.15.212.16.342l.01.156a.526.526 0 00.275.428.502.502 0 00.5-.018C4.948 8.521 6.22 8.171 7.69 8.17zM16.58 4.647c-.432.44-.985.661-1.657.661-.671 0-1.22-.22-1.647-.661a2.248 2.248 0 01-.487-.755 2.285 2.285 0 01-.155-.888c0-.677.214-1.236.642-1.68.428-.442.978-.662 1.647-.66.672-.003 1.225.208 1.657.634.433.425.65.993.65 1.706a2.27 2.27 0 01-.159.89 2.236 2.236 0 01-.49.753zM13.248 26.4V8.69a.526.526 0 01.148-.367.506.506 0 01.36-.151h2.334a.5.5 0 01.359.151.52.52 0 01.149.366V26.4a.528.528 0 01-.15.367.506.506 0 01-.358.152h-2.335a.504.504 0 01-.358-.152.523.523 0 01-.149-.366zM35.043 8.842v2.362c0 .12-.04.236-.115.328l-9.326 11.595a.523.523 0 00.12.765c.082.053.176.08.272.08h8.541c.135 0 .264.055.36.152a.523.523 0 01.148.367v2.064a.525.525 0 01-.313.478.5.5 0 01-.195.04H21.391a.5.5 0 01-.359-.152.52.52 0 01-.148-.366v-2.396c0-.12.04-.237.116-.33l9.394-11.594a.522.522 0 00-.118-.771.5.5 0 00-.274-.08H21.39a.503.503 0 01-.359-.151.523.523 0 01-.148-.366V8.842c0-.137.053-.268.148-.365a.503.503 0 01.359-.152h13.144c.135 0 .264.054.36.151a.523.523 0 01.148.366zM51.623 8.17h2.04c.134 0 .264.055.359.152a.523.523 0 01.149.366v24.134a.524.524 0 01-.15.366.505.505 0 01-.358.152h-2.318a.503.503 0 01-.36-.152.523.523 0 01-.148-.366v-6.264a.524.524 0 00-.266-.457.499.499 0 00-.52.023c-1.175.828-2.59 1.246-4.248 1.256-2.148 0-3.869-.677-5.16-2.03-1.292-1.353-1.938-3.148-1.938-5.385v-4.838c0-2.238.643-4.03 1.928-5.379 1.286-1.347 3.018-2.021 5.198-2.02 1.796 0 3.288.46 4.474 1.382a.5.5 0 00.714-.115.523.523 0 00.091-.254l.01-.1a.522.522 0 01.163-.334.504.504 0 01.34-.136zm-5.167 15.98c1.949 0 3.385-.763 4.307-2.29a.534.534 0 00.074-.274V13.54a.52.52 0 00-.074-.273 4.648 4.648 0 00-1.746-1.664 5.155 5.155 0 00-2.562-.661c-1.34 0-2.402.39-3.187 1.171-.784.781-1.177 1.836-1.177 3.165v4.535c0 1.342.392 2.4 1.177 3.174.785.775 1.848 1.163 3.188 1.163zM62.535 4.647c-.432.44-.985.661-1.657.661-.671 0-1.22-.22-1.647-.661a2.284 2.284 0 01-.643-1.643c0-.677.214-1.236.643-1.679.429-.443.978-.663 1.647-.661.67 0 1.223.212 1.657.636.435.425.651.994.65 1.707a2.268 2.268 0 01-.65 1.64zM59.203 26.4V8.69a.525.525 0 01.314-.479.5.5 0 01.194-.04h2.335c.134 0 .264.055.359.152a.523.523 0 01.149.366V26.4a.524.524 0 01-.15.367.504.504 0 01-.358.152H59.71a.504.504 0 01-.359-.152.523.523 0 01-.149-.366zM86.76 7.728c2.149 0 3.836.642 5.06 1.928 1.226 1.285 1.839 3.073 1.84 5.364v11.385a.527.527 0 01-.149.366.507.507 0 01-.359.151h-2.334a.504.504 0 01-.359-.152.523.523 0 01-.148-.365v-11.13c0-1.34-.363-2.399-1.087-3.174-.724-.775-1.696-1.163-2.916-1.162-1.739 0-3.094.698-4.064 2.094a.527.527 0 00-.082.383c.078.53.114 1.065.109 1.6v11.385a.523.523 0 01-.149.366.503.503 0 01-.36.152h-2.317a.503.503 0 01-.36-.152.523.523 0 01-.148-.366V15.275c0-1.34-.365-2.399-1.095-3.174-.73-.775-1.698-1.163-2.906-1.162-1.692 0-3.012.655-3.96 1.965a.526.526 0 00-.092.307v13.19a.523.523 0 01-.15.366.503.503 0 01-.358.152h-2.318a.503.503 0 01-.36-.152.523.523 0 01-.148-.366V8.69c0-.138.053-.27.149-.367a.503.503 0 01.359-.151h2.026c.129 0 .252.049.346.138a.52.52 0 01.16.34.526.526 0 00.296.432.5.5 0 00.513-.053c1.187-.866 2.614-1.299 4.281-1.299 2.12 0 3.76.693 4.92 2.079a.515.515 0 00.377.187.505.505 0 00.388-.16c1.333-1.406 3.132-2.109 5.395-2.11zM101.32 27.38c-.641 0-1.166-.21-1.576-.628-.41-.418-.616-.956-.616-1.614 0-.658.205-1.193.615-1.606.411-.413.936-.62 1.577-.62.639 0 1.165.207 1.576.62.411.412.616.948.615 1.606 0 .659-.199 1.197-.598 1.614-.398.418-.93.627-1.593.628z" fill="#00D2AB"/><path d="M120.551 8.17h2.333c.135 0 .264.055.359.152a.52.52 0 01.149.366v17.713a.52.52 0 01-.149.366.502.502 0 01-.359.152h-2.039a.502.502 0 01-.342-.135.523.523 0 01-.164-.333l-.019-.2a.517.517 0 00-.303-.425.496.496 0 00-.511.065c-1.221.992-2.709 1.489-4.464 1.489-2.077 0-3.721-.655-4.934-1.965s-1.819-3.103-1.82-5.38V8.69c0-.137.054-.269.149-.366a.502.502 0 01.359-.151h2.352c.135 0 .264.054.359.151a.52.52 0 01.149.366v11.087c0 1.342.359 2.406 1.077 3.192.719.787 1.699 1.18 2.943 1.181 1.952 0 3.383-.776 4.292-2.33a.533.533 0 00.072-.267V8.69a.518.518 0 01.315-.48.501.501 0 01.196-.04zM141.952 8.69v2.362c0 .12-.041.237-.116.329l-9.326 11.596a.524.524 0 00.121.765c.082.053.176.08.272.08h8.541c.135 0 .264.055.359.152a.523.523 0 01.149.365v2.066a.524.524 0 01-.149.365.503.503 0 01-.359.152H128.3a.495.495 0 01-.359-.151.513.513 0 01-.149-.366v-2.401c0-.12.041-.237.117-.329l9.391-11.594a.53.53 0 00.071-.552.503.503 0 00-.462-.298H128.3a.502.502 0 01-.359-.152.524.524 0 01-.149-.366V8.69c0-.137.054-.269.149-.366a.502.502 0 01.359-.151h13.144c.135 0 .264.054.359.151a.52.52 0 01.149.366z" fill="#888CB9"/><path d="M25.897 25.106h-1.305a.142.142 0 00-.14.143v3.645c0 .08.062.144.14.144h1.305c.078 0 .141-.065.141-.144V25.25a.142.142 0 00-.14-.143zM31.336 25.106H30.03a.142.142 0 00-.141.143v3.645c0 .08.063.144.14.144h1.306c.078 0 .14-.065.14-.144V25.25a.142.142 0 00-.14-.143zM25.897 6.34h-1.305a.142.142 0 00-.14.144v3.403c0 .08.062.144.14.144h1.305c.078 0 .141-.064.141-.144V6.484a.142.142 0 00-.14-.143zM31.336 6.34H30.03a.142.142 0 00-.141.144v3.403c0 .08.063.144.14.144h1.306c.078 0 .14-.064.14-.144V6.484a.142.142 0 00-.14-.143z" fill="#00D2AB"/></svg>