<svg width="146" height="34" fill="none" xmlns="http://www.w3.org/2000/svg"><path d="M8.267 8.17h2.076a.52.52 0 01.52.518v2.066a.514.514 0 01-.322.477.521.521 0 01-.198.04H8.118c-1.925 0-3.315.765-4.17 2.297a.52.52 0 00-.066.255v12.578a.518.518 0 01-.52.518H.972a.521.521 0 01-.519-.518V8.69a.517.517 0 01.52-.518h2.07a.52.52 0 01.518.481l.012.156a.519.519 0 00.538.486.523.523 0 00.254-.076c1.097-.699 2.398-1.049 3.902-1.05zM17.357 4.647c-.442.44-1.007.661-1.694.661s-1.248-.22-1.684-.661a2.244 2.244 0 01-.657-1.643c0-.677.219-1.236.657-1.68.438-.442 1-.662 1.684-.66.687-.003 1.252.208 1.694.634.443.425.664.993.664 1.706a2.223 2.223 0 01-.664 1.643zM13.951 26.4V8.69a.516.516 0 01.518-.518h2.387a.52.52 0 01.52.517V26.4a.516.516 0 01-.52.519h-2.387a.52.52 0 01-.518-.518zM36.235 8.842v2.362c0 .12-.041.236-.117.328l-9.536 11.595a.517.517 0 00.4.846h8.734a.52.52 0 01.52.518v2.064a.516.516 0 01-.52.518h-13.44a.52.52 0 01-.518-.518v-2.396c0-.12.041-.237.118-.33l9.605-11.594a.516.516 0 00-.4-.85h-8.805a.52.52 0 01-.518-.518V8.842a.517.517 0 01.518-.517h13.44a.52.52 0 01.52.517zM53.188 8.17h2.086a.52.52 0 01.52.518v24.134a.517.517 0 01-.52.518h-2.37a.52.52 0 01-.52-.518v-6.264a.516.516 0 00-.54-.519.52.52 0 00-.263.085c-1.201.828-2.649 1.246-4.344 1.256-2.196 0-3.955-.677-5.276-2.03-1.32-1.353-1.981-3.148-1.981-5.385v-4.838c0-2.238.657-4.03 1.972-5.379 1.314-1.347 3.085-2.021 5.314-2.02 1.837 0 3.362.46 4.574 1.382a.519.519 0 00.824-.369l.01-.1a.518.518 0 01.514-.47zm-5.283 15.98c1.993 0 3.46-.763 4.404-2.29a.525.525 0 00.075-.274V13.54a.51.51 0 00-.075-.273 4.71 4.71 0 00-1.785-1.664 5.363 5.363 0 00-2.62-.661c-1.37 0-2.456.39-3.258 1.171s-1.204 1.836-1.204 3.165v4.535c0 1.342.401 2.4 1.204 3.174.802.775 1.889 1.163 3.259 1.163zM64.345 4.647c-.443.44-1.007.661-1.694.661s-1.249-.22-1.685-.661a2.245 2.245 0 01-.658-1.643c0-.677.22-1.236.658-1.679.439-.443 1-.663 1.685-.661.685 0 1.25.212 1.694.636.444.425.665.994.663 1.707a2.224 2.224 0 01-.663 1.64zM60.938 26.4V8.69a.516.516 0 01.52-.518h2.386a.52.52 0 01.52.517V26.4a.518.518 0 01-.52.519h-2.387a.521.521 0 01-.52-.518zM89.114 7.728c2.198 0 3.923.642 5.175 1.928 1.253 1.285 1.88 3.073 1.88 5.364v11.385a.516.516 0 01-.519.517h-2.387a.52.52 0 01-.518-.517v-11.13c0-1.34-.37-2.399-1.111-3.174-.74-.775-1.734-1.163-2.981-1.162-1.779 0-3.164.698-4.156 2.094a.517.517 0 00-.083.383c.079.53.116 1.065.11 1.6v11.385a.517.517 0 01-.519.518h-2.37a.52.52 0 01-.52-.518V15.275c0-1.34-.372-2.399-1.119-3.174-.746-.775-1.736-1.163-2.971-1.162-1.73 0-3.08.655-4.049 1.965a.518.518 0 00-.095.307v13.19a.517.517 0 01-.52.518h-2.369a.52.52 0 01-.52-.518V8.69a.517.517 0 01.52-.518h2.072a.52.52 0 01.518.479.517.517 0 00.571.475.521.521 0 00.255-.098c1.214-.865 2.673-1.298 4.378-1.298 2.167 0 3.844.693 5.03 2.079a.524.524 0 00.782.026c1.364-1.405 3.202-2.108 5.516-2.108zM104.002 27.38c-.655 0-1.192-.21-1.612-.628-.419-.418-.629-.956-.629-1.614 0-.658.21-1.193.629-1.606.42-.413.957-.62 1.612-.62.654 0 1.191.207 1.611.62.42.412.63.948.63 1.606 0 .659-.204 1.197-.612 1.614-.407.418-.951.627-1.629.628zM123.664 8.17h2.386a.518.518 0 01.519.518v17.713a.519.519 0 01-.519.518h-2.085a.516.516 0 01-.517-.468l-.02-.2a.522.522 0 00-.309-.426.52.52 0 00-.523.066c-1.249.992-2.77 1.489-4.564 1.489-2.124 0-3.805-.655-5.045-1.965-1.24-1.31-1.86-3.103-1.861-5.379V8.69a.518.518 0 01.519-.517h2.405a.523.523 0 01.52.517v11.087c0 1.342.367 2.406 1.101 3.192.735.787 1.737 1.18 3.009 1.181 1.996 0 3.459-.776 4.389-2.33a.524.524 0 00.073-.267V8.69a.524.524 0 01.152-.368.52.52 0 01.37-.151zM145.547 8.69v2.362c0 .12-.042.237-.119.329l-9.536 11.596a.52.52 0 00.402.846h8.733a.519.519 0 01.52.516v2.066a.52.52 0 01-.52.518h-13.439a.521.521 0 01-.52-.518v-2.401c0-.12.042-.237.12-.329l9.602-11.594a.516.516 0 00-.4-.85h-8.802a.519.519 0 01-.52-.518V8.69a.518.518 0 01.52-.518h13.439a.523.523 0 01.52.518z" fill="#fff"/><path d="M26.883 25.106h-1.335a.144.144 0 00-.144.143v3.645c0 .08.065.144.144.144h1.335c.08 0 .144-.065.144-.144V25.25a.144.144 0 00-.144-.143zM32.446 25.106H31.11a.144.144 0 00-.144.143v3.645c0 .08.064.144.144.144h1.335c.08 0 .144-.065.144-.144V25.25a.144.144 0 00-.145-.143zM26.883 6.34h-1.335a.144.144 0 00-.144.144v3.403c0 .08.065.144.144.144h1.335c.08 0 .144-.064.144-.144V6.484a.144.144 0 00-.144-.143zM32.446 6.34H31.11a.144.144 0 00-.144.144v3.403c0 .08.064.144.144.144h1.335c.08 0 .144-.064.144-.144V6.484a.144.144 0 00-.145-.143z" fill="#fff"/></svg>